<svg width="20" height="19" viewBox="0 0 20 19" fill="none" xmlns="http://www.w3.org/2000/svg">
    <mask id="mask0_6_279" style="mask-type:alpha" maskUnits="userSpaceOnUse" x="9" y="0" width="2" height="5">
        <path fill-rule="evenodd" clip-rule="evenodd" d="M9.25864 0H10.7416V4.39922H9.25864V0Z" fill="white"/>
    </mask>
    <g mask="url(#mask0_6_279)">
        <path fill-rule="evenodd" clip-rule="evenodd"
              d="M10.2473 1.4401C10.5349 1.33801 10.7416 1.06438 10.7416 0.74166C10.7416 0.328346 10.4037 -0.00587888 9.98892 7.84197e-05C9.59142 0.0058303 9.25843 0.344164 9.25864 0.741865C9.25864 1.06438 9.46509 1.33821 9.75289 1.4401V4.39924H10.2426L10.2473 1.4401Z"
              fill="white"/>
    </g>
    <path fill-rule="evenodd" clip-rule="evenodd"
          d="M8.54074 6.76564V4.60396C8.54074 4.19331 8.87373 3.86032 9.28438 3.86032H10.7158C11.1264 3.86032 11.4592 4.19331 11.4592 4.60396V6.76564H8.54074Z"
          fill="white"/>
    <path fill-rule="evenodd" clip-rule="evenodd"
          d="M13.5016 5.06705H6.49843C5.97871 5.06705 5.53931 5.50624 5.53931 6.02617V7.91361H14.4605V6.02617C14.4605 5.50624 14.0213 5.06705 13.5016 5.06705Z"
          fill="white"/>
    <path fill-rule="evenodd" clip-rule="evenodd"
          d="M0 9.74257V14.7705C0 15.1438 0.315326 15.4591 0.688582 15.4591H2.04377V9.05399H0.688582C0.315326 9.05399 0 9.36931 0 9.74257Z"
          fill="white"/>
    <mask id="mask1_6_279" style="mask-type:alpha" maskUnits="userSpaceOnUse" x="17" y="9" width="3" height="7">
        <path fill-rule="evenodd" clip-rule="evenodd" d="M17.9563 9.05365H20V15.4588H17.9563V9.05365Z" fill="white"/>
    </mask>
    <g mask="url(#mask1_6_279)">
        <path fill-rule="evenodd" clip-rule="evenodd"
              d="M20.0001 9.74223V14.7702C20.0001 15.1435 19.6848 15.4588 19.3113 15.4588H17.9563V9.05365H19.3113C19.6848 9.05365 20.0001 9.36898 20.0001 9.74223Z"
              fill="white"/>
    </g>
    <path fill-rule="evenodd" clip-rule="evenodd"
          d="M16.6484 18.237H3.35167C2.22348 18.237 1.30051 17.314 1.30051 16.1858V8.32692C1.30051 7.19873 2.22348 6.27576 3.35167 6.27576H16.6484C17.7764 6.27576 18.6995 7.19873 18.6995 8.32692V16.1858C18.6995 17.314 17.7764 18.237 16.6484 18.237Z"
          fill="#FAFAFB"/>
    <path fill-rule="evenodd" clip-rule="evenodd"
          d="M3.80478 16.7169C3.28505 16.7169 2.84586 16.2778 2.84586 15.758V8.75491C2.84586 8.23498 3.28505 7.79599 3.80478 7.79599H16.1951C16.7153 7.79599 17.1543 8.23498 17.1543 8.75491V15.758C17.1543 16.2778 16.7153 16.7169 16.1951 16.7169H3.80478Z"
          fill="currentColor"/>
    <path fill-rule="evenodd" clip-rule="evenodd"
          d="M8.5559 10.4855C8.5559 11.0225 8.1206 11.4578 7.58362 11.4578C7.04644 11.4578 6.61115 11.0225 6.61115 10.4855C6.61115 9.94854 7.04644 9.51324 7.58362 9.51324C8.1206 9.51324 8.5559 9.94854 8.5559 10.4855Z"
          fill="white"/>
    <path fill-rule="evenodd" clip-rule="evenodd"
          d="M7.80217 14.1861C7.80217 14.4702 7.57189 14.7005 7.28779 14.7005C7.00369 14.7005 6.77341 14.4702 6.77341 14.1861C6.77341 13.902 7.00369 13.6719 7.28779 13.6719C7.57189 13.6719 7.80217 13.902 7.80217 14.1861Z"
          fill="white"/>
    <path fill-rule="evenodd" clip-rule="evenodd"
          d="M9.61032 14.1861C9.61032 14.4702 9.38024 14.7005 9.09614 14.7005C8.81204 14.7005 8.58176 14.4702 8.58176 14.1861C8.58176 13.902 8.81204 13.6719 9.09614 13.6719C9.38024 13.6719 9.61032 13.902 9.61032 14.1861Z"
          fill="white"/>
    <path fill-rule="evenodd" clip-rule="evenodd"
          d="M11.4184 14.1861C11.4184 14.4702 11.1881 14.7005 10.904 14.7005C10.6199 14.7005 10.3896 14.4702 10.3896 14.1861C10.3896 13.902 10.6199 13.6719 10.904 13.6719C11.1881 13.6719 11.4184 13.902 11.4184 14.1861Z"
          fill="white"/>
    <path fill-rule="evenodd" clip-rule="evenodd"
          d="M13.2265 14.1861C13.2265 14.4702 12.9962 14.7005 12.7121 14.7005C12.4282 14.7005 12.198 14.4702 12.198 14.1861C12.198 13.902 12.4282 13.6719 12.7121 13.6719C12.9962 13.6719 13.2265 13.902 13.2265 14.1861Z"
          fill="white"/>
    <path fill-rule="evenodd" clip-rule="evenodd"
          d="M13.3886 10.4855C13.3886 11.0225 12.9535 11.4578 12.4166 11.4578C11.8794 11.4578 11.4441 11.0225 11.4441 10.4855C11.4441 9.94854 11.8794 9.51324 12.4166 9.51324C12.9535 9.51324 13.3886 9.94854 13.3886 10.4855Z"
          fill="white"/>
</svg>
