<svg width="25" height="23" viewBox="0 0 25 23" fill="none" xmlns="http://www.w3.org/2000/svg">
<rect x="12.069" y="6.03448" width="0.862069" height="14.2241" fill="white" stroke="white" stroke-linejoin="round"/>
<path d="M22.4138 16.3793H21.5517V11.6379H3.44828V16.3793H2.58621V10.7758H22.4138V16.3793Z" fill="white" stroke="white" stroke-linejoin="round"/>
<path d="M3.01724 22.4138V22.4138C1.35086 22.4138 0 21.0629 0 19.3965V19.3965C0 17.7302 1.35086 16.3793 3.01724 16.3793V16.3793C4.68362 16.3793 6.03448 17.7302 6.03448 19.3965V19.3965C6.03448 21.0629 4.68362 22.4138 3.01724 22.4138Z" fill="#747474"/>
<path d="M21.9828 22.4138V22.4138C20.3164 22.4138 18.9655 21.0629 18.9655 19.3965V19.3965C18.9655 17.7302 20.3164 16.3793 21.9828 16.3793V16.3793C23.6491 16.3793 25 17.7302 25 19.3965V19.3965C25 21.0629 23.6491 22.4138 21.9828 22.4138Z" fill="#747474"/>
<path d="M12.5 22.4138V22.4138C10.8336 22.4138 9.48276 21.0629 9.48276 19.3965V19.3965C9.48276 17.7302 10.8336 16.3793 12.5 16.3793V16.3793C14.1664 16.3793 15.5172 17.7302 15.5172 19.3965V19.3965C15.5172 21.0629 14.1664 22.4138 12.5 22.4138Z" fill="#747474"/>
<path d="M12.5 6.03448V6.03448C10.8336 6.03448 9.48276 4.68362 9.48276 3.01724V3.01724C9.48276 1.35086 10.8336 0 12.5 0V0C14.1664 0 15.5172 1.35086 15.5172 3.01724V3.01724C15.5172 4.68362 14.1664 6.03448 12.5 6.03448Z" fill="white"/>
</svg>
