<svg width="24" height="23" viewBox="0 0 24 23" fill="none" xmlns="http://www.w3.org/2000/svg">
<path d="M23.6735 8.75912V1.75961C23.6735 0.790268 22.9179 0 21.9912 0H10.6619C9.73512 0 8.97958 0.790268 8.97958 1.75961V8.75912C8.97958 9.72847 9.73512 10.5187 10.6619 10.5187H11.142V12.6287C11.142 13.018 11.4435 13.3333 11.8194 13.3333C12.0129 13.3333 12.199 13.2438 12.3293 13.0881L14.4544 10.5148H21.9949C22.9179 10.5187 23.6735 9.72847 23.6735 8.75912Z" fill="#747474"/>
<path d="M22.3129 15.9165V5.41719C22.3129 3.96317 21.1656 2.77777 19.7584 2.77777H2.55457C1.1473 2.77777 0 3.96317 0 5.41719V15.9165C0 17.3705 1.1473 18.5559 2.55457 18.5559H3.28364V21.7208C3.28364 22.3048 3.74143 22.7778 4.31225 22.7778C4.60614 22.7778 4.88872 22.6435 5.08653 22.4099L8.31366 18.55H19.764C21.1656 18.5559 22.3129 17.3705 22.3129 15.9165Z" fill="white"/>
</svg>
