<svg width="20" height="20" viewBox="0 0 20 20" fill="none" xmlns="http://www.w3.org/2000/svg">
<path fill-rule="evenodd" clip-rule="evenodd" d="M0 10C0 4.48577 4.48615 0 10 0C15.5138 0 20 4.48577 20 10C20 15.5142 15.5138 20 10 20C4.48615 20 0 15.5142 0 10ZM10.7695 10.7658H14.808C15.2326 10.7658 15.5772 10.4212 15.5772 9.99659C15.5772 9.57198 15.2326 9.22736 14.808 9.22736H10.7695V5.38121C10.7695 4.95659 10.4249 4.61198 10.0003 4.61198C9.57565 4.61198 9.23103 4.95659 9.23103 5.38121V9.22736H5.19257C4.76796 9.22736 4.42334 9.57198 4.42334 9.99659C4.42334 10.4212 4.76796 10.7658 5.19257 10.7658H9.23103V14.9966C9.23103 15.4212 9.57565 15.7658 10.0003 15.7658C10.4249 15.7658 10.7695 15.4212 10.7695 14.9966V10.7658Z" fill="#28B6FF"/>
</svg>
