<svg width="24" height="24" viewBox="0 0 24 24" fill="none" xmlns="http://www.w3.org/2000/svg">
<path d="M11.9766 8.72295C10.1826 8.72295 8.72296 10.1826 8.72296 11.9766C8.72296 13.7706 10.1826 15.2303 11.9766 15.2303C13.7708 15.2303 15.2305 13.7706 15.2305 11.9766C15.2305 10.1826 13.7708 8.72295 11.9766 8.72295Z" fill="#747474"/>
<path fill-rule="evenodd" clip-rule="evenodd" d="M21.0464 8.71948L22.2145 8.91758C23.2343 9.08936 23.9645 9.95998 23.953 10.9892V12.9682C23.953 13.9962 23.2175 14.8657 22.2039 15.0358L21.0376 15.2303C20.936 15.5126 20.8182 15.7962 20.6848 16.0789L21.3734 17.0457C21.9689 17.8825 21.8739 19.017 21.1473 19.7438L19.7434 21.1475C19.3467 21.5444 18.8209 21.7628 18.2628 21.7628C17.82 21.7628 17.3982 21.6276 17.0426 21.3715L16.0832 20.6857C15.807 20.8156 15.523 20.9331 15.2336 21.0371L15.0355 22.2054C14.8655 23.2177 13.996 23.9532 12.968 23.9532H10.9803C9.9523 23.9532 9.08279 23.2177 8.91265 22.2041L8.71802 21.0362C8.44335 20.9373 8.17599 20.8275 7.91776 20.7076L6.93567 21.4066C6.58333 21.6603 6.16283 21.7957 5.72332 21.7957C5.1652 21.7957 4.63925 21.5771 4.24251 21.1804L2.83882 19.7767C2.1102 19.0552 2.01407 17.9196 2.61257 17.0788L3.29313 16.1321C3.16045 15.8554 3.0413 15.5724 2.93659 15.2855L1.74726 15.0826C0.735563 14.9128 0 14.0433 0 13.0154V11.0322C0 10.0042 0.735563 9.13469 1.74909 8.96455L2.89382 8.77156C2.99635 8.48008 3.11221 8.19481 3.24086 7.91795L2.54185 6.93567C1.94627 6.09905 2.04148 4.96455 2.76809 4.23794L4.17489 2.83571C4.56725 2.43787 5.09338 2.21875 5.65735 2.21875C6.09996 2.21875 6.52193 2.35398 6.87756 2.61001L7.82602 3.29295C8.10271 3.16045 8.3856 3.0413 8.67233 2.93659L8.87537 1.74726C9.04514 0.735563 9.91466 0 10.9426 0H12.9256C13.9536 0 14.8231 0.735563 14.9932 1.74909L15.1864 2.89382C15.4916 3.00146 15.7948 3.12646 16.0936 3.26773L17.0596 2.57968C17.4123 2.32584 17.8326 2.19042 18.2723 2.19042C18.8302 2.19042 19.3562 2.40899 19.7529 2.80574L21.1566 4.20961C21.8852 4.9311 21.9814 6.0667 21.3829 6.90753L20.695 7.86988C20.8249 8.14602 20.9424 8.43001 21.0464 8.71948ZM7.31944 11.9766C7.31944 14.5446 9.40863 16.6338 11.9766 16.6338C14.5446 16.6338 16.634 14.5446 16.634 11.9766C16.634 9.40863 14.5446 7.31944 11.9766 7.31944C9.40863 7.31944 7.31944 9.40863 7.31944 11.9766Z" fill="white"/>
</svg>
