<svg width="21" height="21" viewBox="0 0 21 21" fill="none" xmlns="http://www.w3.org/2000/svg">
<path fill-rule="evenodd" clip-rule="evenodd" d="M0 10.5C0 4.725 4.725 0 10.5 0C16.275 0 21 4.725 21 10.5C21 16.275 16.275 21 10.5 21C4.725 21 0 16.275 0 10.5ZM15.75 7.875C15.75 7.035 15.015 6.3 14.175 6.3C13.335 6.3 12.6 7.035 12.6 7.875C12.6 8.715 13.335 9.45 14.175 9.45C15.015 9.45 15.75 8.715 15.75 7.875ZM6.825 6.3C7.665 6.3 8.4 7.035 8.4 7.875C8.4 8.715 7.665 9.45 6.825 9.45C5.985 9.45 5.25 8.715 5.25 7.875C5.25 7.035 5.985 6.3 6.825 6.3ZM4.62 12.6C5.46 15.015 7.77 16.8 10.5 16.8C13.23 16.8 15.54 15.015 16.38 12.6H4.62Z" fill="#B2B2B2"/>
</svg>
