<svg width="18" height="24" viewBox="0 0 18 24" fill="none" xmlns="http://www.w3.org/2000/svg">
<path d="M8.707 3.793L5.207 0.293001C4.817 -0.0974991 4.183 -0.0974991 3.793 0.293001L0.292997 3.793C-0.0975029 4.1835 -0.0975029 4.8165 0.292997 5.207C0.682997 5.5975 1.317 5.5975 1.707 5.207L3.5 3.414V14C3.5 14.552 3.948 15 4.5 15C5.052 15 5.5 14.552 5.5 14V3.414L7.293 5.207C7.488 5.4025 7.744 5.5 8 5.5C8.256 5.5 8.512 5.4025 8.707 5.207C9.0975 4.8165 9.0975 4.1835 8.707 3.793Z" fill="white"/>
<path d="M17.707 18.793C17.3165 18.4025 16.6835 18.4025 16.293 18.793L14.5 20.586V1C14.5 0.448 14.052 0 13.5 0C12.948 0 12.5 0.448 12.5 1V20.586L10.707 18.793C10.3165 18.4025 9.683 18.4025 9.293 18.793C8.9025 19.1835 8.9025 19.8165 9.293 20.207L12.793 23.707C12.9885 23.9025 13.244 24 13.5 24C13.756 24 14.0115 23.9025 14.207 23.707L17.707 20.207C18.0975 19.8165 18.0975 19.1835 17.707 18.793Z" fill="white"/>
</svg>
