<svg width="23" height="20" viewBox="0 0 23 20" fill="none" xmlns="http://www.w3.org/2000/svg">
<path fill-rule="evenodd" clip-rule="evenodd" d="M14.8813 6.88068C14.8813 8.72352 13.3874 10.2177 11.5443 10.2177C9.70145 10.2177 8.20673 8.7238 8.20673 6.88096C8.20673 5.03812 9.70145 3.54398 11.5443 3.54398C13.3871 3.54398 14.8813 5.03784 14.8813 6.88068ZM10.1282 10.4451H12.9598C15.3157 10.4451 17.2324 12.3621 17.2315 14.718V18.1813H17.2077L16.9848 18.2941C16.8726 18.3511 15.0525 19.2464 11.9123 19.2464C10.3046 19.2464 8.35126 19.0122 6.10294 18.3097L5.86442 18.235L5.85562 18.1808V14.718C5.85562 12.3621 7.77229 10.4451 10.1282 10.4451Z" fill="white"/>
<path fill-rule="evenodd" clip-rule="evenodd" d="M5.68895 6.77308C6.34175 6.77308 6.94912 6.58255 7.46364 6.25799C7.62719 5.19119 8.19907 4.25898 9.016 3.62407C9.0194 3.5616 9.02537 3.4997 9.02537 3.43666C9.02537 1.59353 7.53122 0.0996704 5.68895 0.0996704C3.84554 0.0996704 2.35196 1.59353 2.35196 3.43666C2.35196 5.27893 3.84554 6.77308 5.68895 6.77308Z" fill="#747474"/>
<path fill-rule="evenodd" clip-rule="evenodd" d="M8.68577 9.86474C7.93046 9.14038 7.45228 8.13349 7.41736 7.01615C7.31315 7.00848 7.21007 7.00024 7.10388 7.00024H4.2726C1.91667 7.00024 0 8.91691 0 11.2726V14.7359L0.00880247 14.7893L0.247321 14.8645C2.05098 15.4276 3.66069 15.6871 5.05886 15.7689V14.7231C5.05943 12.4294 6.59106 10.488 8.68577 9.86474Z" fill="#747474"/>
<path fill-rule="evenodd" clip-rule="evenodd" d="M13.7304 3.38526C14.7825 4.04488 15.5202 5.16109 15.6545 6.45675C16.0835 6.65722 16.5597 6.77251 17.0646 6.77251C18.9077 6.77251 20.4016 5.27864 20.4016 3.4358C20.4016 1.59268 18.9077 0.0988159 17.0646 0.0988159C15.2391 0.0993838 13.7583 1.56656 13.7304 3.38526Z" fill="#747474"/>
<path fill-rule="evenodd" clip-rule="evenodd" d="M18.4807 7.00024H15.671C15.6406 8.1244 15.1607 9.13669 14.4017 9.86474C16.4958 10.4874 18.028 12.4294 18.028 14.7231V15.7902C20.8022 15.6886 22.4009 14.9023 22.5062 14.8495L22.7291 14.7365H22.753V11.2726C22.753 8.91691 20.8363 7.00024 18.4807 7.00024Z" fill="#747474"/>
</svg>
