<svg width="23" height="26" viewBox="0 0 23 26" fill="none" xmlns="http://www.w3.org/2000/svg">
<path fill-rule="evenodd" clip-rule="evenodd" d="M21.6266 0H4.80082H4.78772H2.80975C2.03691 0 1.33611 0.314378 0.825242 0.825242C0.314378 1.33611 0 2.03691 0 2.80975V22.6156C0 23.3884 0.314378 24.0958 0.825242 24.6001C1.32956 25.1109 2.03691 25.4253 2.80975 25.4253H4.77462H4.78772H21.6266C22.0851 25.4253 22.4518 25.0586 22.4518 24.6001V0.825242C22.4518 0.366774 22.0851 0 21.6266 0ZM3.96247 1.65048V23.7748H2.80975C2.48883 23.7748 2.20065 23.6438 1.99106 23.4343C1.78148 23.2247 1.65048 22.9365 1.65048 22.6156V2.80975C1.65048 2.48883 1.78148 2.20065 1.99106 1.99106C2.20065 1.78148 2.48883 1.65048 2.80975 1.65048H3.96247ZM13.1908 11.894H13.2235C13.5379 11.894 13.8195 11.763 14.0226 11.5534C14.2322 11.3504 14.3631 11.0556 14.3631 10.7413C14.3631 10.4334 14.2453 10.1583 14.0619 9.95531L14.0226 9.92256C13.8195 9.71297 13.5248 9.58198 13.2104 9.58198C12.8895 9.58198 12.6013 9.71297 12.3917 9.92256H12.3852C12.1821 10.1256 12.0512 10.4203 12.0512 10.7413C12.0512 11.0622 12.1821 11.3504 12.3852 11.5534L12.3917 11.5599C12.5948 11.763 12.8764 11.894 13.1908 11.894ZM13.2432 13.5445H14.206C14.5203 13.5445 14.8085 13.6754 15.0181 13.8785V13.885C15.2277 14.0881 15.3521 14.3762 15.3521 14.6906V15.8433H11.0622V14.6906C11.0622 14.3762 11.1932 14.0881 11.3962 13.885C11.6058 13.6754 11.894 13.5445 12.2083 13.5445H13.1711H13.2104H13.2432Z" fill="white"/>
</svg>
